<?xml version="1.0" encoding="utf-8"?>
<!-- Generator: Adobe Illustrator 27.3.1, SVG Export Plug-In . SVG Version: 6.00 Build 0)  -->
<svg version="1.1" id="Layer_1" xmlns="http://www.w3.org/2000/svg" xmlns:xlink="http://www.w3.org/1999/xlink" x="0px" y="0px"
	 viewBox="0 0 119.5 86" style="enable-background:new 0 0 119.5 86;" xml:space="preserve">
<style type="text/css">
	.st0{fill:#303236;}
	.st1{display:none;}
	.st2{display:inline;fill:none;stroke:#000000;stroke-miterlimit:10;}
</style>
<g id="a">
	<path class="st0" d="M89.4,19.1l18.2,54.6c2.9,8.6,6,9.9,11.9,9.9V86H84.1v-2.3c6,0,13.5,1.3,10.7-9.4L76.7,21L56.2,86h-1.9
		l-8.5-26.4H20.2c-1.9,5.9-4.7,12.8-2.1,19.1c1.8,4.3,3.6,4.8,6.8,5V86H0v-2.3c3.5-0.5,5.2-1.4,7.9-4.3C11,76,14,69.8,17,60.7
		l14.7-46.4c-2.1-6.9-4.2-12-10.5-12h-2.3V0h20.4l21.3,63.1L80.5,0h19.3v2.3h-2.3C88,2.3,85.1,8.8,89.4,19.1L89.4,19.1z M21.4,56
		h23.2L32.9,18.7L21.4,56L21.4,56z"/>
</g>
<g id="a_copy" class="st1">
	<path class="st2" d="M-48,18.6l18.2,54.6c2.9,8.6,6,9.9,11.9,9.9v2.4h-35.4v-2.3c6,0,13.5,1.3,10.7-9.4l-18.1-53.3l-20.5,65h-1.9
		l-8.5-26.4h-25.6c-1.9,5.9-4.7,12.8-2.1,19.1c1.8,4.3,3.6,4.8,6.8,5v2.3h-24.9v-2.3c3.5-0.5,5.2-1.4,7.9-4.3
		c3.1-3.4,6.1-9.6,9.1-18.7l14.7-46.4c-2.1-6.9-4.2-12-10.5-12h-2.3v-2.3h20.4l21.3,63.1l19.9-63.1h19.3v2.3h-2.3
		C-49.4,1.8-52.3,8.3-48,18.6L-48,18.6z M-116,55.5h23.2l-11.7-37.3L-116,55.5L-116,55.5z"/>
</g>
</svg>
