<svg version="1.1" xmlns="http://www.w3.org/2000/svg" xmlns:xlink="http://www.w3.org/1999/xlink" x="0px" y="0px"
	 viewBox="0 0 262.6 218.1" >
	<g>
		<path d="M59.2,120.4c0.4-0.2,1.1-0.4,2.1-0.8c1.1-0.3,2.1-0.7,3.3-1.1c1.1-0.4,2.2-0.8,3.2-1c1-0.3,1.6-0.4,1.9-0.4
		c0.5,0,0.9,0.1,1.3,0.4c0.4,0.3,0.7,0.6,1,0.9s0.3,0.7,0.3,1s-0.3,0.6-0.8,0.8c-2.1,0.5-4.1,1.2-6,2.1c-1.9,0.8-3.9,1.6-6,2.5
		c0.7,9.2,1.2,18.4,1.4,27.5c0.2,9.1,0,18.3-0.8,27.4c-0.3,3.5-0.6,6.9-1,10.3c-0.4,3.4-0.8,6.8-1.4,10.1c-0.4,2.2-0.9,4.3-1.5,6.4
		s-1.6,4-2.7,5.8s-2.6,3.1-4.4,4.2c-1.7,1-3.9,1.6-6.4,1.6c-3.2,0-6.5-0.8-9.8-2.5c-3.3-1.6-6.2-3.4-8.6-5.3
		c-2.2-1.6-4.4-3.4-6.7-5.3c-2.3-1.9-4.5-4-6.6-6.1c-2.1-2.1-4-4.4-5.8-6.8s-3.1-4.9-4.1-7.5c-1.1-2.8-1.5-5.6-1.1-8.4
		c0.4-2.8,1.1-5.5,2.3-8.1c1.2-2.6,2.7-5.1,4.5-7.5c1.8-2.4,3.6-4.6,5.3-6.7c4-4.9,8.5-9.5,13.6-13.7c3.6-23.6,7.5-46.9,11.9-69.9
		C42.2,47.2,47.1,24,52.5,0.8C52.7,0.3,53,0,53.4,0c0.7,0,1.5,0.3,2.3,0.9s1.1,1.2,1,1.8c-1.1,7.9-1.8,15.7-2.2,23.6
		c-0.4,7.9-0.4,15.8-0.2,23.6c0.2,7.9,0.6,15.7,1.2,23.6c0.5,7.9,1.1,15.8,1.8,23.6c0.4,3.8,0.7,7.7,1,11.6
		C58.6,112.7,58.9,116.6,59.2,120.4z M56.6,152.2c-0.1-4.3-0.2-8.6-0.4-12.8c-0.2-4.2-0.4-8.5-0.7-12.8c-9.2,4.3-17.7,9.7-25.3,16.2
		c-1.1,7.3-2.1,14.6-3.2,21.9c-1,7.3-2,14.7-2.9,22.1c-0.1,0.5-0.4,0.7-1,0.7c-0.6,0-1.4-0.3-2.2-0.9c-0.8-0.6-1.2-1.2-1.1-1.8
		c0.7-6.3,1.5-12.5,2.3-18.7c0.8-6.2,1.7-12.4,2.7-18.6c-1.7,1.6-3.7,3.6-6,6s-4.4,4.8-6.4,7.5c-2,2.6-3.8,5.3-5.3,8.1
		c-1.5,2.7-2.5,5.3-2.9,7.7c-0.5,3.2-0.2,6.2,1,8.9c1.2,2.7,2.7,5.3,4.7,7.7c1.8,2.3,3.8,4.5,6,6.5c2.1,2.1,4.4,4,6.6,5.8
		c2.5,2.1,5.2,4.2,8.3,6.2c3.1,2,6.3,3,9.8,3c3,0,5.4-0.9,7.1-2.7c1.7-1.8,3.1-4,4-6.6c1-2.6,1.6-5.4,2-8.3c0.4-2.9,0.7-5.5,1-7.8
		c0.7-6.1,1.2-12.3,1.5-18.4C56.6,164.6,56.7,158.4,56.6,152.2z M47.8,43.4c-3.2,15.4-6.2,30.8-9,46.2c-2.8,15.3-5.4,30.8-7.7,46.4
		c3.7-2.8,7.6-5.4,11.6-7.7c4-2.3,8.2-4.4,12.5-6.2c-1-14.9-2.2-29.8-3.6-44.6C50.3,62.6,49.7,47.8,50,33c-0.5,1.7-0.8,3.5-1.2,5.2
		C48.5,40,48.2,41.7,47.8,43.4z"/>
		<path d="M117.4,118c0.4-0.4,0.8-0.5,1.4-0.5c0.6,0,1.2,0.2,1.7,0.6c0.5,0.4,0.6,0.9,0.3,1.4c-0.6,1.1-1.5,2.4-2.6,3.9
		c-1.1,1.5-2.3,2.9-3.7,4.3s-2.8,2.5-4.3,3.4c-1.5,0.9-3,1.4-4.5,1.4c-1.4,0-2.6-0.4-3.8-1.2s-2.3-1.8-3.3-2.9s-1.9-2.4-2.8-3.7
		c-0.9-1.3-1.8-2.6-2.8-3.8c-0.5-0.6-1.1-1.2-1.6-1.8c-0.5-0.5-1.1-0.8-1.8-0.8c-1.1,0-2.4,1-3.9,2.9c-1.5,1.9-3,4.1-4.5,6.6
		c-1.5,2.5-2.9,4.9-4,7.3s-2,4.1-2.5,5.1c-0.1,0.4-0.4,0.5-0.8,0.5c-0.6,0-1.3-0.3-2.1-1c-0.7-0.6-1.1-1.1-1.2-1.5
		c-1.7-10-1.6-20.2,0.3-30.6c0.1-0.5,0.4-0.7,1-0.7c0.6,0,1.4,0.3,2.2,0.9c0.8,0.6,1.1,1.2,1,1.8c-1.3,7-1.7,14.1-1.2,21.2
		c0.5-0.9,1.2-2.3,2.2-4.1c1-1.8,2.1-3.6,3.4-5.4c1.3-1.8,2.6-3.4,4-4.8c1.4-1.4,2.6-2.2,3.8-2.3c1.1,0,2.1,0.2,2.9,0.5
		c0.8,0.4,1.7,0.9,2.6,1.5c1.1,0.9,2.1,1.9,3,3.1c0.9,1.1,1.8,2.3,2.7,3.5c0.3,0.4,0.6,0.9,1,1.6c0.4,0.7,0.8,1.3,1.3,2
		s1,1.2,1.6,1.7c0.5,0.5,1.1,0.8,1.6,0.8c1,0,2.2-0.4,3.5-1.3c1.3-0.9,2.6-1.9,3.9-3.1s2.5-2.4,3.6-3.6
		C115.9,119.8,116.8,118.8,117.4,118z"/>
		<path d="M154.5,52.3c0.7,4.2,1.1,8.4,1,12.6c0,4.2-0.2,8.4-0.5,12.6c-0.6,7.8-2.1,15.4-4.5,23c-2.4,7.6-5.9,14.5-10.5,20.8
		c0.2,1,0.4,1.9,0.5,2.7c0.2,0.8,0.4,1.7,0.5,2.6c0.6,2.5,1.3,5,1.8,7.6c0.6,2.6,1.3,5.1,2.2,7.6c0.9,2.5,1.9,4.9,3.2,7.2
		s2.8,4.5,4.6,6.4c0.8,0.8,0.7,1.5-0.3,1.9c-0.7,0-1.3-0.1-1.6-0.3s-0.8-0.6-1.4-1.2c-3.8-4.1-6.6-8.9-8.4-14.2
		c-1.8-5.4-3.2-10.8-4.3-16.3c-0.6,0.7-1.4,1.6-2.4,2.6s-2,1.9-3.1,2.8c-1.1,0.9-2.2,1.6-3.4,2.2c-1.1,0.6-2.3,0.9-3.4,0.9
		c-1.6,0-3-0.7-4.4-2.1c-1.6-1.6-2.6-3.5-2.9-5.8s-0.3-4.5-0.1-6.6c0.6-5,2.3-8.4,5.1-10.2s6.4-2.7,11.1-2.7
		c-0.6-4.6-1.1-9.1-1.3-13.6c-0.2-4.5-0.3-9-0.1-13.6c0-1.2,0.1-3,0.2-5.5c0.1-2.5,0.4-5.2,0.7-8.3c0.3-3.1,0.8-6.2,1.3-9.5
		c0.5-3.2,1.3-6.2,2.3-8.8s2.1-4.8,3.5-6.6c1.4-1.7,3-2.6,4.8-2.6c1.6,0,3.1,0.5,4.2,1.5c1.2,1,2.1,2.2,2.9,3.7s1.3,3,1.7,4.7
		C154.1,49.6,154.4,51.1,154.5,52.3z M134,121.3l1.5-2.2c-0.3-1.6-0.5-3.1-0.8-4.6c-0.3-1.5-0.5-3-0.8-4.6c-1.4,0-2.7,0.2-4,0.5
		c-1.3,0.3-2.6,0.9-3.8,1.8c-2.1,1.6-3.5,3.8-4.2,6.7c-0.7,2.9-0.8,5.7-0.3,8.2c0.2,0.7,0.4,1.4,0.8,2.1c0.3,0.7,1.1,1,2.3,0.9
		c0.5-0.2,1.3-0.7,2.2-1.4c0.9-0.8,1.9-1.6,2.8-2.6s1.8-1.9,2.7-2.8C133,122.4,133.6,121.7,134,121.3z M151.3,64.3
		c0-1,0-2.6-0.1-4.9c-0.1-2.3-0.3-4.7-0.6-7.2c-0.3-2.5-0.8-4.8-1.4-6.9c-0.6-2.1-1.4-3.4-2.5-3.8c-0.8,0-1.6,0.5-2.3,1.5
		c-0.7,1-1.3,1.7-1.6,2.2c-1.9,3.3-3.2,7-3.8,11c-0.6,4.1-1.2,8-1.6,11.7c-0.5,4.9-0.7,9.8-0.8,14.5s0,9.6,0.3,14.5
		c0.1,1.7,0.2,3.4,0.4,5.1l0.5,4.9c0.5,0.2,1.1,0.3,1.6,0.3s1.1,0.2,1.5,0.3c0.4,0,0.9,0.2,1.6,0.5c0.1-0.2,0.2-0.4,0.2-0.5
		c0-0.2,0.1-0.4,0.2-0.5c3.2-6.8,5.4-13.7,6.6-20.9C150.6,78.9,151.3,71.7,151.3,64.3z M138,110.2c0.2,0.7,0.3,1.5,0.3,2.3
		c0,0.8,0.2,1.5,0.3,2.3c0.5-0.7,0.9-1.4,1.2-2s0.7-1.3,1.1-2c-0.5-0.2-1-0.3-1.5-0.3C138.9,110.3,138.4,110.3,138,110.2z"/>
		<path d="M173.6,106.2c0.4-0.1,0.8,0,1.3,0.3c0.5,0.3,0.9,0.6,1.3,1c0.4,0.4,0.6,0.8,0.7,1.2c0.1,0.4-0.1,0.6-0.7,0.7
		c-3.7,0.7-6.6,2.3-8.8,4.6c-2.2,2.3-4,5-5.2,8.1c-1.2,3.1-2.1,6.3-2.5,9.8s-0.6,6.8-0.6,9.9c0,0.5-0.2,0.7-0.7,0.7
		c-0.6,0-1.3-0.3-2.1-0.8c-0.7-0.5-1.1-1-1.2-1.4c-0.7-4.5-1.2-8.9-1.5-13.4c-0.3-4.4-0.4-8.9-0.3-13.5c0-0.5,0.2-0.7,0.7-0.7
		c0.6,0,1.3,0.3,2.1,0.8s1.2,1.1,1.2,1.8v3.6c0,1.1,0,2.3,0.1,3.5c1.3-3.9,3.2-7.4,5.6-10.3S169,107.1,173.6,106.2z"/>
		<path d="M198.5,117.6l0.7-0.5c0.5,0,1.1,0.3,1.7,1c0.6,0.7,0.7,1.3,0.3,1.8c-0.8,1.4-1.7,3.4-2.7,6.1c-1,2.7-2.1,5.4-3.4,8.1
		c-1.3,2.7-2.7,5-4.3,7.1c-1.6,2-3.4,3-5.4,3c-1.6,0-3-0.5-4-1.4c-1-0.9-1.8-2.1-2.3-3.5c-0.5-1.4-0.8-2.9-1-4.5s-0.3-2.9-0.4-4.1
		c-0.1-0.9-0.1-2.4-0.1-4.4c0-2,0.1-4.1,0.2-6.3c0.1-2.2,0.3-4.3,0.5-6.2s0.5-3.4,0.8-4.2c0.2-0.7,0.5-1.3,0.8-1.8s0.9-0.8,1.6-0.8
		c0.4,0,0.7,0,1,0.1c0.5,0.1,0.9,0.3,1.2,0.7c0.4,0.4,0.6,0.7,0.8,1.1c0.1,0.4,0.1,0.7-0.1,1c-0.2,0.3-0.6,0.4-1.2,0.4
		c-0.3,3.1-0.5,6.1-0.7,8.9l-0.3,7.4c-0.1,2.5-0.1,4.5,0,6c0,0.6,0.1,1.4,0.2,2.3c0.1,0.9,0.3,1.8,0.5,2.6c0.2,0.8,0.5,1.5,0.9,2.1
		s0.7,0.9,1.1,0.9c1.2,0,2.5-1,3.9-3c1.4-2,2.8-4.3,4-6.9c1.3-2.6,2.4-5.2,3.5-7.7C197.5,120.3,198.2,118.6,198.5,117.6z M181.7,101
		c-0.5-0.4-0.8-0.8-1-1.4c-0.2-1.5,0.2-2.6,1.1-3.6c0.3-0.3,0.6-0.4,1-0.4c0.7,0,1.3,0.2,1.8,0.7c0.6,0.4,1.1,0.8,1.2,1.2
		c0.3,0.5,0.3,0.8,0,1.1c-0.2,0.2-0.3,0.4-0.4,0.5l-0.3,0.5c-0.1,0.2-0.1,0.4-0.1,0.6v0.5c0.1,0.7-0.5,1.1-1.8,1.1
		C182.7,101.8,182.2,101.5,181.7,101z"/>
		<path d="M217.6,118.4c0.3-0.6,0.8-1,1.5-1c0.5,0,1.1,0.2,1.6,0.5c0.5,0.4,0.7,0.8,0.5,1.2c-2.3,7.5-5,14.9-8.3,22.3
		c-3.2,7.4-6.8,14.4-10.8,21.2l-0.8,7.4c-0.7,4.8-1.6,9.6-2.7,14.5c-1.1,4.9-2.8,9.6-5.2,14c-0.5,0.7-1,1.6-1.6,2.5
		s-1.4,1.5-2.4,1.6c-1.6,0-2.8-0.5-3.6-1.4c-0.9-1-1.5-2.2-2-3.6c-0.7-2.2-0.8-4.4-0.3-6.7c0.5-2.3,1.2-4.5,2-6.6
		c1.2-3.2,2.6-6.2,4.2-9.1s3.2-5.8,4.9-8.7c0.5-1,1.1-2,1.7-3s1.2-2,1.7-3v-0.3c0.8-8.8,1.1-17.5,0.8-26.2c-0.3-8.7-1-17.5-2.1-26.2
		c-0.1-0.6,0.2-1,0.8-1c0.5,0,1.2,0.3,2,0.8c0.8,0.5,1.2,1,1.3,1.4c0.9,7.1,1.6,14.2,2,21.3c0.4,7.1,0.5,14.2,0.2,21.3
		c2.9-5.3,5.6-10.7,8.2-16.2S215.7,124.2,217.6,118.4z M187.8,198.3c1.1-1.2,2.1-2.9,3-5.1c0.9-2.2,1.7-4.6,2.5-7.1
		c0.7-2.5,1.3-5,1.8-7.3c0.5-2.4,0.9-4.3,1.2-5.9c-1.1,1.9-2.2,3.9-3.2,5.8c-1.1,2-2,4-2.9,6.1c-0.8,2-1.6,4.2-2.3,6.5
		C187.2,193.5,187.2,195.9,187.8,198.3z M195.9,98.4c0.2-0.9,0.1-1.7-0.3-2.3c-0.1-0.2,0-0.4,0.2-0.5s0.8-0.3,1.6-0.4
		c1.2,0.3,2,1,2.5,2.2c0.2,0.5,0.3,1,0.3,1.6s0,1.1-0.1,1.6c-0.1,0.5-0.4,0.7-1,0.7c-0.7,0-1.5-0.3-2.3-0.9S195.8,99,195.9,98.4z"/>
		<path d="M259.8,118c0.3-0.3,0.6-0.4,1-0.4c0.5,0,1.1,0.3,1.5,0.8c0.5,0.5,0.5,1.1,0,1.6c-0.9,1.3-2,2.7-3.3,4.4
		c-1.3,1.6-2.6,3.2-4.1,4.7c-1.5,1.5-3,2.8-4.6,3.8c-1.6,1-3.2,1.5-4.9,1.5s-3.1-0.5-4.3-1.4c-1.2-1-2.2-2.1-3-3.5s-1.4-2.9-1.8-4.5
		c-0.5-1.6-0.8-3.1-1-4.5c-1.6,1.9-3.2,3.6-5,5c-1.8,1.4-3.6,2.1-5.4,2.1c-1.9,0-3.6-0.9-5.1-2.6c-1.6-1.8-2.2-4-1.8-6.6
		c0.5-2.6,1.5-4.7,3.2-6.3c2.1-2,4.7-3,7.8-3c1.1,0,2.2,0.2,3.4,0.5c1.1,0.3,2.4,0.8,3.6,1.6c0.1-0.2,0.2-0.3,0.3-0.4
		c0.1-0.1,0.2-0.2,0.3-0.4l0.4-1.2c0.2-0.5,0.4-1.1,0.6-1.6c0.2-0.5,0.5-1,0.8-1.4c0.3-0.4,0.7-0.6,1-0.6c0.7,0,1.5,0.4,2.3,1.1
		s1,1.4,0.8,2.1c-0.2,0.5-0.4,1-0.7,1.6s-0.6,1.2-1,1.8c-0.9,2.6-1.3,5.3-1.3,8.2c0,2.9,0.6,5.5,1.6,7.8c0.9,1.9,2.1,2.9,3.7,2.9
		c1.4,0,2.8-0.5,4.4-1.6s3-2.4,4.5-3.9c1.4-1.5,2.7-3,3.8-4.5C258.5,119.7,259.3,118.6,259.8,118z M225.8,122.8
		c1.8-1.2,3.4-2.6,4.9-4.2c1.4-1.6,2.8-3.3,4-5.1c-1.2-0.5-2.4-0.8-3.6-0.8c-1.6,0-3,0.4-4.3,1.2s-2.4,1.8-3.4,3.1
		c-1.1,1.6-1.6,3.4-1.4,5.2c0,0.4,0,0.8,0.1,1.2c0.1,0.5,0.4,0.8,0.8,1c0.3,0.1,0.7-0.1,1.4-0.5
		C225.1,123.3,225.5,122.9,225.8,122.8z"/>
	</g>
</svg>